<svg width="27" height="27" viewBox="0 0 27 27" fill="none" xmlns="http://www.w3.org/2000/svg">
<circle cx="13.5" cy="13.5" r="12.55" stroke="black" stroke-width="1.9"/>
<circle cx="13.5" cy="6.5" r="2.2" stroke="black" stroke-width="1.4"/>
<path d="M17.9749 9.6261L15.4006 10.8H13.5789H11.7338L8.46096 9.55633C7.8166 9.31147 7.09035 9.57911 6.75897 10.1835C6.35831 10.9144 6.69115 11.8309 7.46738 12.1343L10.9053 13.478L10.9053 17.0929L9.82015 20.5566C9.60111 21.2558 9.93703 22.0086 10.6037 22.3126C11.3532 22.6544 12.2366 22.3052 12.5499 21.5433L13.7338 18.6642L15.9443 21.8898C16.337 22.4629 17.0848 22.6707 17.7168 22.3825C18.5032 22.0239 18.7941 21.0549 18.3352 20.3226L16.2526 16.9988V16.6V16V13.4501L19.122 12.1417C19.8532 11.8083 20.1469 10.9239 19.7606 10.2193C19.4126 9.58447 18.6337 9.32571 17.9749 9.6261Z" stroke="black" stroke-width="1.4"/>
</svg>