<svg width="20" height="20" viewBox="0 0 20 20" fill="none" xmlns="http://www.w3.org/2000/svg">
<path fill-rule="evenodd" clip-rule="evenodd" d="M17.75 10C17.75 14.2802 14.2802 17.75 10 17.75C5.71979 17.75 2.25 14.2802 2.25 10C2.25 5.71979 5.71979 2.25 10 2.25C14.2802 2.25 17.75 5.71979 17.75 10ZM19.75 10C19.75 15.3848 15.3848 19.75 10 19.75C4.61522 19.75 0.25 15.3848 0.25 10C0.25 4.61522 4.61522 0.25 10 0.25C15.3848 0.25 19.75 4.61522 19.75 10ZM10.0335 7.10098C10.6386 7.10098 11.1292 6.61044 11.1292 6.00532C11.1292 5.40021 10.6386 4.90967 10.0335 4.90967C9.42839 4.90967 8.93785 5.40021 8.93785 6.00532C8.93785 6.61044 9.42839 7.10098 10.0335 7.10098ZM11.6379 14.7896C11.7162 14.7896 11.7944 14.77 11.8727 14.7309C12.1662 14.5939 12.2836 14.2613 12.1466 13.9678C12.1466 13.9678 11.0705 11.5026 10.8749 10.6026C10.7998 10.3024 10.7608 9.51652 10.7404 9.10741V9.10738L10.7379 9.05693C10.7379 8.91998 10.8162 8.80259 10.9336 8.76346L13.3401 8.03954C13.6336 7.96128 13.8097 7.62867 13.7314 7.33519C13.6531 7.04171 13.3205 6.86562 13.0271 6.94389C13.0271 6.94389 10.7966 7.6678 9.99444 7.6678C9.21183 7.6678 7.00096 6.96345 7.00096 6.96345C6.70748 6.88519 6.37487 7.02215 6.27704 7.31563C6.17921 7.62867 6.3553 7.96128 6.66835 8.03954L9.07487 8.76346C9.19227 8.80259 9.29009 8.91998 9.27053 9.05693L9.26801 9.10739C9.24768 9.5165 9.20861 10.3024 9.13357 10.6026C8.93792 11.5026 7.86183 13.9678 7.86183 13.9678C7.72487 14.2613 7.86183 14.5939 8.13574 14.7309C8.214 14.77 8.29226 14.7896 8.37052 14.7896C8.58574 14.7896 8.80096 14.6722 8.87922 14.4569L10.0336 12.1091L11.1292 14.4765C11.2271 14.6722 11.4227 14.7896 11.6379 14.7896Z" fill="#CDCFD4"/>
</svg>
