<?xml version="1.0" encoding="UTF-8"?>
<svg viewBox="0 0 18 18" version="1.1" xmlns="http://www.w3.org/2000/svg" xmlns:xlink="http://www.w3.org/1999/xlink">
    <defs>
        <path d="M5.6902,10.8057 L4.0212,12.2447 L4.3642,11.5997 L4.3642,7.3337 C4.3642,4.3887 6.9082,1.9997 10.0452,1.9997 C11.6212,1.9997 13.0462,2.6027 14.0752,3.5757 L13.1022,4.4147 C12.3152,3.6757 11.2372,3.2167 10.0452,3.2167 C7.6402,3.2167 5.6902,5.0777 5.6902,7.3737 L5.6902,10.8057 Z M15.7277,7.4203 L15.7277,11.6003 L17.9997,15.8663 L12.8297,15.8663 C12.5667,17.0843 11.4207,18.0003 10.0457,18.0003 C8.6717,18.0003 7.5257,17.0843 7.2627,15.8663 L5.9317,15.8663 L7.3417,14.6503 L16.0347,14.6503 L14.4017,11.5323 L14.4017,8.5633 L15.7277,7.4203 Z M2.927,17.0972 L2,15.9582 L16.98,2.4302 L17.907,3.5692 L2.927,17.0972 Z M10.0457,16.8423 C10.6607,16.8423 11.1777,16.4723 11.3727,15.9573 L8.7187,15.9573 C8.9137,16.4723 9.4307,16.8423 10.0457,16.8423 Z" id="path-1"></path>
    </defs>
    <g id="icon/notification_off" stroke="none" stroke-width="1" fill="none" fill-rule="evenodd">
        <mask id="mask-2" fill="white">
            <use xlink:href="#path-1"></use>
        </mask>
        <use id="Combined-Shape" fill="#2F343D" xlink:href="#path-1"></use>
        <g id="resources/BG/Pallete/icons/White" mask="url(#mask-2)" fill="#FFFFFF">
            <rect id="Purple" x="0" y="0" width="20" height="20"></rect>
        </g>
    </g>
</svg>