<svg viewBox="0 0 32 32" xmlns="http://www.w3.org/2000/svg">
<g stroke="none" fill="currentColor" fill-rule="evenodd" >
	<path d="M13.2742 6.30172L15.1923 10.2335C15.5735 11.015 15.3844 11.8811 14.9166 12.4693C14.7382 12.6936 14.5728 12.9349 14.4591 13.1558C14.3673 13.3343 14.3393 13.4417 14.3309 13.486L14.3321 13.4889C14.345 13.5207 14.3806 13.6084 14.4725 13.7633C14.6089 13.993 14.8085 14.2717 15.0487 14.5743C15.5272 15.1771 16.1045 15.7968 16.4871 16.1794L15.0729 17.5936C14.6523 17.173 14.0205 16.4957 13.4823 15.8179C13.2142 15.4802 12.9536 15.1227 12.7527 14.7841C12.5779 14.4896 12.35 14.053 12.3294 13.6004C12.3057 13.081 12.4991 12.5936 12.6808 12.2407C12.8742 11.8648 13.1234 11.511 13.3513 11.2245C13.3781 11.1907 13.3907 11.1561 13.3942 11.1321C13.3961 11.1192 13.3952 11.1125 13.3946 11.1101L11.5033 7.23316C10.5642 7.41175 9.36554 7.88566 8.53795 8.59037C8.11581 8.94983 7.83244 9.33301 7.69533 9.72334C7.56492 10.0946 7.54288 10.5366 7.74896 11.0888C8.32753 12.6392 9.4507 14.3994 10.6067 15.9453C11.7553 17.4811 12.882 18.734 13.4072 19.2592L11.993 20.6735C11.3937 20.0742 10.2051 18.7477 9.00507 17.1431C7.81256 15.5484 6.55398 13.607 5.87519 11.7881C5.51346 10.8188 5.51542 9.89444 5.80836 9.0605C6.0946 8.24565 6.63391 7.58486 7.2413 7.06764C8.43939 6.04743 10.0632 5.44653 11.2831 5.24082C12.1792 5.08973 12.9406 5.61781 13.2742 6.30172ZM26.3648 19.3924C27.0487 19.7261 27.5767 20.4875 27.4256 21.3835C27.2199 22.6034 26.619 24.2273 25.5988 25.4254C25.0816 26.0328 24.4208 26.5721 23.606 26.8583C22.772 27.1512 21.8477 27.1532 20.8784 26.7915C19.0595 26.1127 17.118 24.8541 15.5234 23.6616C13.9187 22.4616 12.5923 21.273 11.993 20.6737L13.4072 19.2594C13.9324 19.7847 15.1853 20.9114 16.7212 22.0599C18.267 23.216 20.0273 24.3391 21.5776 24.9177C22.1299 25.1238 22.5719 25.1017 22.9431 24.9713C23.3335 24.8342 23.7166 24.5508 24.0761 24.1287C24.7808 23.3011 25.2547 22.1024 25.4333 21.1634L21.5564 19.272C21.554 19.2714 21.5472 19.2705 21.5344 19.2724C21.5103 19.276 21.4758 19.2886 21.442 19.3154C21.1554 19.5433 20.8017 19.7925 20.4258 19.9859C20.0728 20.1675 19.5855 20.3609 19.0661 20.3373C18.6135 20.3167 18.1769 20.0888 17.8824 19.914C17.5438 19.713 17.1863 19.4524 16.8486 19.1843C16.1707 18.6462 15.4934 18.0144 15.0728 17.5938L16.487 16.1796C16.8697 16.5622 17.4894 17.1394 18.0921 17.6179C18.3948 17.8582 18.6734 18.0577 18.9032 18.1941C19.0581 18.2861 19.1458 18.3217 19.1775 18.3346L19.1805 18.3358C19.2247 18.3274 19.3322 18.2994 19.5107 18.2076C19.7316 18.0939 19.9729 17.9284 20.1972 17.7501C20.7854 17.2823 21.6515 17.0931 22.433 17.4744L26.3648 19.3924Z"/>
    </g>
</svg>
