<svg xmlns="http://www.w3.org/2000/svg" version="1.0" width="288.000000pt" height="220.000000pt" viewBox="0 0 288.000000 220.000000" preserveAspectRatio="xMidYMid meet">

<g transform="translate(0.000000,220.000000) scale(0.100000,-0.100000)" fill="currentColor" stroke="none">
<path d="M1255 1514 c-98 -8 -360 -46 -447 -65 -121 -26 -270 -75 -343 -111 -114 -56 -184 -151 -204 -276 -17 -108 19 -281 85 -399 64 -115 109 -153 182 -153 35 0 376 108 457 145 57 26 99 89 111 166 12 78 27 96 91 110 81 18 420 18 500 0 35 -8 67 -19 72 -25 4 -6 16 -46 26 -89 23 -109 54 -142 171 -184 362 -129 392 -137 457 -109 40 17 65 44 111 125 134 231 130 492 -8 619 -106 98 -335 172 -686 222 -140 20 -459 33 -575 24z m505 -189 c336 -44 585 -119 648 -195 45 -54 54 -155 24 -255 -24 -76 -72 -176 -89 -182 -12 -5 -323 96 -364 117 -8 5 -23 41 -33 85 -35 148 -104 197 -304 216 -209 19 -468 5 -566 -31 -83 -32 -125 -89 -146 -200 -6 -30 -14 -58 -19 -63 -14 -14 -361 -129 -374 -124 -19 7 -75 129 -94 200 -19 75 -13 172 13 216 10 17 35 42 54 55 114 76 485 159 800 180 94 6 330 -4 450 -19z"/>
</g>
</svg>