<?xml version="1.0" encoding="UTF-8"?>
<svg width="32px" height="32px" viewBox="0 0 32 32" version="1.1" xmlns="http://www.w3.org/2000/svg" xmlns:xlink="http://www.w3.org/1999/xlink">
    <g id="Symbols" stroke="none" stroke-width="1" fill="none" fill-rule="evenodd">
        <g id="Artboard" transform="translate(-136.000000, -31.000000)">
            <g id="Icons-/-Attachment-/-powerpoint" transform="translate(136.000000, 31.000000)">
                <g id="Group-3" transform="translate(7.000000, 4.000000)">
                    <g id="Group">
                        <path d="M13.5007334,0 L18,4.52002448 L18,22 C18,23.1045695 17.1045695,24 16,24 L2,24 C0.8954305,24 1.3527075e-16,23.1045695 0,22 L0,2 C-1.3527075e-16,0.8954305 0.8954305,2.02906125e-16 2,0 L13.5007334,0 Z" id="Combined-Shape" fill="#F5455C"></path>
                        <path d="M13.5,0.00217437744 L13.5,3.50313568 C13.5,4.05542043 13.9477153,4.50313568 14.5,4.50313568 L18,4.50313568 L13.5,0.00217437744 Z" id="Path-7" fill="#FFFFFF" opacity="0.5"></path>
                    </g>
                    <g id="Group-2" transform="translate(4.050000, 7.500000)" fill="#FFFFFF">
                        <path d="M4.50002561,5.24788171 L9.00002561,5.24788171 C9.00002561,7.71625658 6.96864272,9.74788171 4.50002561,9.74788171 C2.0314085,9.74788171 2.56097561e-05,7.71625658 2.56097561e-05,5.24788171 C2.56097561e-05,2.7792646 2.0314085,0.747881707 4.50002561,0.747881707 L4.50002561,5.24788171 Z" id="Fill-1"></path>
                        <path d="M5.25,4.5 L5.25,0 C6.44300748,0 7.58829467,0.474296173 8.43199925,1.31775852 C9.27546159,2.1614631 9.75,3.30675028 9.75,4.5 L5.25,4.5 Z" id="Fill-4"></path>
                    </g>
                </g>
            </g>
        </g>
    </g>
</svg>