<?xml version="1.0" encoding="UTF-8"?>
<svg width="32px" height="32px" viewBox="0 0 32 32" version="1.1" xmlns="http://www.w3.org/2000/svg" xmlns:xlink="http://www.w3.org/1999/xlink">
    <g id="Symbols" stroke="none" stroke-width="1" fill="none" fill-rule="evenodd">
        <g id="Artboard" transform="translate(-98.000000, -31.000000)">
            <g id="Icons-/-Attachment-/-excel" transform="translate(98.000000, 31.000000)">
                <g id="Group" transform="translate(7.000000, 4.000000)">
                    <path d="M13.5007334,0 L18,4.52002448 L18,22 C18,23.1045695 17.1045695,24 16,24 L2,24 C0.8954305,24 1.3527075e-16,23.1045695 0,22 L0,2 C-1.3527075e-16,0.8954305 0.8954305,2.02906125e-16 2,0 L13.5007334,0 Z" id="Combined-Shape" fill="#2DE0A5"></path>
                    <path d="M13.5,0.00217437744 L13.5,3.50313568 C13.5,4.05542043 13.9477153,4.50313568 14.5,4.50313568 L18,4.50313568 L13.5,0.00217437744 Z" id="Path-7" fill="#FFFFFF" opacity="0.5"></path>
                    <g id="Group-13" transform="translate(2.250000, 6.000000)" fill="#FFFFFF" fill-rule="nonzero">
                        <g id="Group-2" transform="translate(0.000000, 0.750000)">
                            <polygon id="Stroke-1-Copy" points="1.5 5.25 1.5 3.75 12 3.75 12 5.25"></polygon>
                            <polygon id="Stroke-1-Copy-3" points="1.5 8.25 1.5 6.75 12 6.75 12 8.25"></polygon>
                            <polygon id="Stroke-1-Copy-2" points="4.5 0.75 6 0.75 6 11.25 4.5 11.25"></polygon>
                            <path d="M2.25,2.25 L2.25,9.75 L11.25,9.75 L11.25,2.25 L2.25,2.25 Z M2.25,0.75 L11.25,0.75 C12.0784271,0.75 12.75,1.42157288 12.75,2.25 L12.75,9.75 C12.75,10.5784271 12.0784271,11.25 11.25,11.25 L2.25,11.25 C1.42157288,11.25 0.75,10.5784271 0.75,9.75 L0.75,2.25 C0.75,1.42157288 1.42157288,0.75 2.25,0.75 Z" id="Rectangle-17"></path>
                        </g>
                    </g>
                </g>
            </g>
        </g>
    </g>
</svg>