<?xml version="1.0" encoding="UTF-8"?>
<svg
	xmlns="http://www.w3.org/2000/svg"
	xmlns:xlink="http://www.w3.org/1999/xlink" width="25pt" height="24pt" viewBox="0 0 25 24" version="1.1">
	<defs>
		<radialGradient id="radial0" gradientUnits="userSpaceOnUse" cx="0.676805" cy="0.0508502" fx="0.676805" fy="0.0508502" r="1.181282" gradientTransform="matrix(257,0,0,242.129883,-5,-5)">
			<stop offset="0" style="stop-color:rgb(74.117647%,84.313725%,20.784314%);stop-opacity:1;"/>
			<stop offset="0.485323" style="stop-color:rgb(49.411765%,70.980392%,36.078431%);stop-opacity:1;"/>
			<stop offset="1" style="stop-color:rgb(1.568627%,45.490196%,65.098039%);stop-opacity:1;"/>
		</radialGradient>
	</defs>
	<g id="surface1">
		<path style="fill-rule:evenodd;fill:url(#radial0);stroke-width:10;stroke-linecap:round;stroke-linejoin:round;stroke:rgb(100%,100%,100%);stroke-opacity:1;stroke-miterlimit:4;" d="M 12.146719 232.462891 C 27.165156 205.884766 31.742969 189.115234 25.880156 182.193848 C 17.045781 171.831543 0.0195312 139.083496 0.0195312 113.019531 C 0.0195312 50.608398 55.274531 -0.0166016 123.5 -0.0166016 C 191.725469 -0.0166016 246.980469 50.608398 246.980469 113.019531 C 246.980469 175.391113 191.725469 226.016113 123.5 226.016113 C 102.257344 226.016113 82.299687 221.111816 64.831719 212.450195 C 47.283437 219.134277 29.695 225.818359 12.146719 232.462891 Z M 12.146719 232.462891 " transform="matrix(0.0972763,0,0,0.0987654,0.486381,0.493827)"/>
		<path style=" stroke:none;fill-rule:evenodd;fill:rgb(100%,100%,100%);fill-opacity:1;" d="M 6.175781 13.925781 C 6.820312 13.925781 6.90625 14.25 6.90625 14.648438 L 6.90625 14.683594 C 6.90625 15.082031 6.820312 15.40625 6.175781 15.40625 C 5.535156 15.40625 5.449219 15.082031 5.449219 14.683594 L 5.449219 14.648438 C 5.449219 14.25 5.535156 13.925781 6.175781 13.925781 Z M 10.988281 10.167969 C 11.546875 10.007812 12.125 10.335938 12.28125 10.898438 L 12.84375 12.914062 L 14.367188 7.507812 C 14.5 7.015625 14.875 6.621094 15.367188 6.476562 C 16.132812 6.253906 16.9375 6.707031 17.15625 7.488281 L 18.914062 13.722656 C 19.132812 14.507812 18.6875 15.324219 17.921875 15.546875 C 17.152344 15.773438 16.351562 15.320312 16.128906 14.535156 L 14.71875 9.527344 L 13.226562 14.832031 C 13.128906 15.171875 12.867188 15.457031 12.507812 15.5625 C 11.953125 15.726562 11.375 15.398438 11.214844 14.832031 L 10.503906 12.308594 L 9.734375 15.039062 C 9.664062 15.289062 9.472656 15.496094 9.210938 15.574219 C 8.804688 15.691406 8.382812 15.453125 8.265625 15.039062 L 7.8125 13.433594 C 7.695312 13.019531 7.929688 12.589844 8.335938 12.46875 C 8.742188 12.351562 9.164062 12.589844 9.28125 13.003906 L 9.480469 13.714844 L 10.273438 10.902344 C 10.367188 10.558594 10.628906 10.273438 10.988281 10.167969 Z M 10.988281 10.167969 "/>
	</g>
</svg>
